<?xml version="1.0" encoding="utf-8"?>
<!-- Generator: Adobe Illustrator 16.0.0, SVG Export Plug-In . SVG Version: 6.00 Build 0)  -->
<!DOCTYPE svg PUBLIC "-//W3C//DTD SVG 1.1//EN" "http://www.w3.org/Graphics/SVG/1.1/DTD/svg11.dtd">
<svg version="1.1" id="Layer_1" xmlns="http://www.w3.org/2000/svg" xmlns:xlink="http://www.w3.org/1999/xlink" x="0px" y="0px"
	 width="26.159px" height="18.87px" viewBox="0 0 26.159 18.87" enable-background="new 0 0 26.159 18.87" xml:space="preserve">
<g>
	<g>
		<path fill="#E7AD6F" d="M22.646,18.87h-6.396c-0.276,0-0.5-0.224-0.5-0.5v-6.803h-4.207v6.803c0,0.276-0.224,0.5-0.5,0.5H4.646
			c-0.276,0-0.5-0.224-0.5-0.5V7.983c0-0.276,0.224-0.5,0.5-0.5s0.5,0.224,0.5,0.5v9.887h5.396v-6.803c0-0.276,0.224-0.5,0.5-0.5
			h5.207c0.276,0,0.5,0.224,0.5,0.5v6.803h5.396V7.983c0-0.276,0.224-0.5,0.5-0.5s0.5,0.224,0.5,0.5V18.37
			C23.146,18.646,22.922,18.87,22.646,18.87z"/>
	</g>
	<g>
		<path fill="#E7AD6F" d="M25.659,9.917c-0.101,0-0.203-0.03-0.291-0.094L13.646,1.428L1.923,9.823
			c-0.224,0.162-0.537,0.11-0.698-0.115C1.064,9.483,1.116,9.17,1.341,9.01l12.014-8.604c0.174-0.125,0.408-0.125,0.582,0
			L25.95,9.01c0.225,0.16,0.276,0.473,0.116,0.697C25.968,9.844,25.814,9.917,25.659,9.917z"/>
	</g>
</g>
</svg>
