<?xml version="1.0" encoding="utf-8"?>
<!-- Generator: Adobe Illustrator 16.0.0, SVG Export Plug-In . SVG Version: 6.00 Build 0)  -->
<!DOCTYPE svg PUBLIC "-//W3C//DTD SVG 1.1//EN" "http://www.w3.org/Graphics/SVG/1.1/DTD/svg11.dtd">
<svg version="1.1" id="Layer_1" xmlns="http://www.w3.org/2000/svg" xmlns:xlink="http://www.w3.org/1999/xlink" x="0px" y="0px"
	 width="21.982px" height="16.5px" viewBox="0 0 21.982 16.5" enable-background="new 0 0 21.982 16.5" xml:space="preserve">
<g>
	<g>
		<path fill="#E7AD6F" d="M20.021,16.5H1.857C0.833,16.5,0,15.666,0,14.641V2.758C0,1.733,0.833,0.9,1.857,0.9h18.164
			c1.024,0,1.857,0.833,1.857,1.857v11.883C21.879,15.666,21.046,16.5,20.021,16.5z M1.857,1.9C1.385,1.9,1,2.285,1,2.758v11.883
			C1,15.114,1.385,15.5,1.857,15.5h18.164c0.473,0,0.857-0.386,0.857-0.859V2.758c0-0.473-0.385-0.857-0.857-0.857H1.857z"/>
	</g>
	<g>
		<path fill="#E7AD6F" d="M20.021,16.5H1.857c-0.764,0-1.461-0.482-1.734-1.2c-0.074-0.194-0.021-0.414,0.134-0.552l7.092-6.322
			c0.206-0.185,0.523-0.166,0.706,0.04c0.184,0.206,0.166,0.522-0.04,0.706l-6.785,6.049C1.39,15.395,1.616,15.5,1.857,15.5h18.164
			c0.241,0,0.468-0.105,0.627-0.278l-6.862-6.12c-0.206-0.184-0.224-0.5-0.04-0.706c0.183-0.205,0.498-0.225,0.706-0.04l7.168,6.393
			c0.154,0.138,0.208,0.356,0.135,0.55C21.483,16.017,20.786,16.5,20.021,16.5z"/>
	</g>
	<g>
		<path fill="#E7AD6F" d="M10.939,12.006c-0.119,0-0.238-0.042-0.333-0.127L0.257,2.652C0.103,2.515,0.049,2.295,0.123,2.101
			c0.273-0.718,0.971-1.2,1.734-1.2h18.164c0.765,0,1.462,0.483,1.733,1.202c0.073,0.193,0.02,0.412-0.135,0.55l-10.348,9.227
			C11.178,11.964,11.059,12.006,10.939,12.006z M1.229,2.18l9.71,8.656l9.709-8.657C20.489,2.006,20.263,1.9,20.021,1.9H1.857
			C1.616,1.9,1.39,2.006,1.229,2.18z"/>
	</g>
</g>
</svg>
