<svg id="Layer_2" data-name="Layer 2" xmlns="http://www.w3.org/2000/svg" viewBox="0 0 62.05 55.62"><defs><style>.cls-1{fill:#f9bb7a;}.cls-2{stroke:#000;stroke-linejoin:round;}</style></defs><title>s5-icon-02</title><circle class="cls-1" cx="38.8" cy="23.25" r="23.25"/><path class="cls-2" d="M50.72,12.15a2.34,2.34,0,0,0-1.8-.65c-1.93,0-2.29,1.09-2.36,1.46h0V14.5H5.17V13h0C5.1,12.59,4.74,11.5,2.8,11.5a2.33,2.33,0,0,0-1.8.65,1.74,1.74,0,0,0-.45,1.23V40.14l-0.05.14,0.05,0V53.62h0c0,0.25.3,1.48,2.36,1.48a2.34,2.34,0,0,0,1.81-.66,1.71,1.71,0,0,0,.44-1.21V41.12H46.55V53.25A1.74,1.74,0,0,0,47,54.46a2.34,2.34,0,0,0,1.81.66c2.06,0,2.32-1.24,2.36-1.48l-0.09,0h0.1V13.38A1.76,1.76,0,0,0,50.72,12.15ZM1.55,13.34a0.76,0.76,0,0,1,.2-0.52A1.44,1.44,0,0,1,2.8,12.5c0.8,0,1.29.23,1.37,0.63V15h0v0.31L1.55,22.4V13.34Zm0,12,3.62-9.8H9.65L1.56,37.42V25.3ZM4.17,40.12V53.29A0.73,0.73,0,0,1,4,53.8a1.45,1.45,0,0,1-1.06.32c-1.22,0-1.35-.51-1.36-0.62V40.31L10.71,15.5H18.8l-9,24.62H4.17Zm6.74,0,9-24.62h8.35l-9,24.62H10.91Zm9.42,0,9-24.62h8.44l-9,24.62H20.33Zm9.5,0,9-24.62h7.66L37.35,40.12H29.83ZM50.16,53.5c0,0.11-.14.62-1.36,0.62a1.44,1.44,0,0,1-1.06-.32,0.72,0.72,0,0,1-.19-0.51V40.62h0V40.55l2.65-7.17V53.5Zm0-23-3.56,9.63h-8.2L47.5,15.5h0V15.34h0V13.13c0.08-.4.57-0.63,1.37-0.63a1.43,1.43,0,0,1,1,.32,0.77,0.77,0,0,1,.2.52V30.49Z"/></svg>