<svg id="Layer_2" data-name="Layer 2" xmlns="http://www.w3.org/2000/svg" viewBox="0 0 57.56 53.06"><defs><style>.cls-1{fill:#f9bb7a;}.cls-2{fill:none;stroke:#000;stroke-miterlimit:10;stroke-width:2px;}</style></defs><title>s5-icon-01</title><circle class="cls-1" cx="34.31" cy="23.25" r="23.25"/><polygon class="cls-2" points="34.94 46.88 6.19 46.88 6.19 5.38 29.44 5.38 34.94 10.75 34.94 46.88"/><polyline class="cls-2" points="29.75 46.88 29.75 52.06 1 52.06 1 10.56 6.19 10.56"/><line class="cls-2" x1="29.44" y1="5.38" x2="29.44" y2="11.5"/><line class="cls-2" x1="28.52" y1="11" x2="35.31" y2="11"/><line class="cls-2" x1="9.95" y1="20.25" x2="12.39" y2="20.25"/><line class="cls-2" x1="9.99" y1="24.13" x2="11.77" y2="24.13"/><line class="cls-2" x1="9.94" y1="28.25" x2="30.85" y2="28.25"/><line class="cls-2" x1="9.94" y1="32" x2="30.85" y2="32"/><line class="cls-2" x1="13.71" y1="24.13" x2="16.39" y2="24.13"/><line class="cls-2" x1="18.42" y1="24.13" x2="21.09" y2="24.13"/><line class="cls-2" x1="23.17" y1="24.13" x2="25.84" y2="24.13"/><line class="cls-2" x1="28.09" y1="24.13" x2="30.85" y2="24.13"/><line class="cls-2" x1="14.66" y1="20.25" x2="17.1" y2="20.25"/><line class="cls-2" x1="19.28" y1="20.25" x2="21.72" y2="20.25"/><line class="cls-2" x1="23.78" y1="20.25" x2="26.22" y2="20.25"/><line class="cls-2" x1="28.41" y1="20.25" x2="30.85" y2="20.25"/></svg>