<svg id="Layer_3" data-name="Layer 3" xmlns="http://www.w3.org/2000/svg" viewBox="0 0 70.05 50.9"><defs><style>.cls-1{fill:#f9bb7a;}.cls-2{stroke:#000;stroke-linecap:round;stroke-miterlimit:10;stroke-width:0.5px;}</style></defs><title>s5-icon-03</title><circle class="cls-1" cx="46.8" cy="23.25" r="23.25"/><rect x="6.63" y="46.75" width="1.62" height="0.95"/><polygon class="cls-2" points="46.38 39.88 46.39 36.92 41.99 35.97 41.06 33.74 43.51 29.96 39.31 25.75 35.53 28.2 33.3 27.27 32.35 22.86 26.41 22.86 25.47 27.26 23.23 28.18 19.45 25.74 15.25 29.93 17.69 33.72 16.76 35.95 12.36 36.9 12.35 39.85 14.19 39.85 14.19 38.38 18.09 37.55 19.76 33.53 17.6 30.19 19.7 28.09 23.04 30.25 27.06 28.59 27.9 24.7 30.87 24.7 31.7 28.6 35.72 30.26 39.06 28.11 41.16 30.21 38.99 33.55 40.66 37.57 44.55 38.41 44.54 39.88 46.38 39.88"/><path class="cls-2" d="M37.48,43.36h-0.6l-0.48.35-0.79.58H23.14l-0.79-.58-0.48-.35H0.25v4a3.32,3.32,0,0,0,3.31,3.31H55.18a3.32,3.32,0,0,0,3.31-3.31v-4h-21Zm19.18,4a1.48,1.48,0,0,1-1.47,1.47H3.56a1.48,1.48,0,0,1-1.47-1.47V45.2H21.26l1.28,0.93H36.2l1.28-.93H56.65v2.13Z"/><rect x="10.42" y="46.75" width="1.62" height="0.95"/><path class="cls-2" d="M54,40.7v-26a3.07,3.07,0,0,0-3.07-3.06h-43a3.07,3.07,0,0,0-3.06,3.06v26H6.62V18.57H52.12V40.7H54Zm-47.33-24v-2a1.23,1.23,0,0,1,1.23-1.23h43a1.23,1.23,0,0,1,1.23,1.23v2H6.62Z"/><circle class="cls-2" cx="29.37" cy="15.15" r="0.96"/><path class="cls-2" d="M23.05,39.88h1.84a4.48,4.48,0,1,1,9,0h1.84A6.32,6.32,0,0,0,23.05,39.88Z"/></svg>