<?xml version="1.0" encoding="utf-8"?>
<!-- Generator: Adobe Illustrator 16.0.0, SVG Export Plug-In . SVG Version: 6.00 Build 0)  -->
<!DOCTYPE svg PUBLIC "-//W3C//DTD SVG 1.1//EN" "http://www.w3.org/Graphics/SVG/1.1/DTD/svg11.dtd">
<svg version="1.1" id="Layer_1" xmlns="http://www.w3.org/2000/svg" xmlns:xlink="http://www.w3.org/1999/xlink" x="0px" y="0px"
	 width="19px" height="26.583px" viewBox="0 0 19 26.583" enable-background="new 0 0 19 26.583" xml:space="preserve">
<g>
	<g>
		<g>
			<path fill="#E7AD6F" d="M18.442,12.065c-0.276,0-0.5-0.224-0.5-0.5c0-5.733-4.666-10.398-10.4-10.398c-0.276,0-0.5-0.224-0.5-0.5
				s0.224-0.5,0.5-0.5c6.286,0,11.4,5.113,11.4,11.398C18.942,11.841,18.718,12.065,18.442,12.065z"/>
		</g>
		<g>
			<path fill="#E7AD6F" d="M15.24,12.067c-0.276,0-0.5-0.224-0.5-0.5c0-3.97-3.23-7.199-7.201-7.199c-0.276,0-0.5-0.224-0.5-0.5
				s0.224-0.5,0.5-0.5c4.522,0,8.201,3.678,8.201,8.199C15.74,11.843,15.516,12.067,15.24,12.067z"/>
		</g>
		<g>
			<path fill="#E7AD6F" d="M11.867,12.067c-0.276,0-0.5-0.224-0.5-0.5c-0.001-2.108-1.718-3.824-3.829-3.826
				c-0.276,0-0.5-0.225-0.5-0.5c0-0.276,0.224-0.5,0.5-0.5h0c2.661,0.002,4.827,2.167,4.828,4.826
				C12.367,11.843,12.143,12.067,11.867,12.067L11.867,12.067z"/>
		</g>
	</g>
	<g>
		<g>
			<path fill="#E7AD6F" d="M11.985,26.595H0.5c-0.276,0-0.5-0.224-0.5-0.5V3.917c0-0.276,0.224-0.5,0.5-0.5h5.399v1H1v21.178h10.485
				V13.204h1v12.892C12.485,26.372,12.262,26.595,11.985,26.595z"/>
		</g>
		<g>
			<rect x="0.604" y="20.531" fill="#E7AD6F" width="11.277" height="1"/>
		</g>
		<g>
			<rect x="5.671" y="23.078" fill="#E7AD6F" width="1.145" height="1"/>
		</g>
		<g>
			<rect x="0.604" y="6.287" fill="#E7AD6F" width="5.294" height="1"/>
		</g>
	</g>
</g>
</svg>
